<svg t="1648455712979" class="icon" viewBox="0 0 1024 1024" version="1.1" xmlns="http://www.w3.org/2000/svg" p-id="1431" width="200" height="200"><path d="M528.477091 104.727273h-34.350546c-214.574545 0-389.399273 164.398545-389.399272 368.267636 0 81.408 32.674909 159.650909 91.275636 218.996364l238.871273 241.803636c1.861818 1.861818 3.816727 3.723636 5.864727 5.492364 43.147636 37.469091 109.707636 34.955636 149.643636-5.725091l239.709091-244.224c57.250909-58.368 89.181091-135.168 89.181091-215.04 0-204.613818-175.429818-369.570909-390.795636-369.570909z m-34.350546 69.818182h34.350546c177.757091 0 320.977455 134.702545 320.977454 299.752727 0 61.44-24.669091 120.692364-69.21309 166.167273l-239.709091 244.177454a40.448 40.448 0 0 1-53.992728 1.908364l-2.001454-1.861818-238.871273-241.757091c-45.800727-46.359273-71.121455-107.054545-71.121454-169.890909 0-164.398545 142.615273-298.496 319.58109-298.496z" p-id="1432"></path><path d="M516.142545 335.499636a158.766545 158.766545 0 0 0-159.045818 158.580364 158.766545 158.766545 0 0 0 159.045818 158.533818 158.766545 158.766545 0 0 0 159.045819-158.533818 158.766545 158.766545 0 0 0-159.045819-158.580364z m0 69.818182c49.291636 0 89.227636 39.749818 89.227637 88.762182a88.948364 88.948364 0 0 1-89.227637 88.715636 88.948364 88.948364 0 0 1-89.227636-88.715636c0-49.012364 39.936-88.762182 89.227636-88.762182z" p-id="1433"></path></svg>