<svg t="1649926634178" class="icon" viewBox="0 0 1024 1024" version="1.1" xmlns="http://www.w3.org/2000/svg" p-id="1694" width="200" height="200"><path d="M0 512a512 512 0 1 0 1024 0A512 512 0 0 0 0 512z m392.277333 245.077333c-2.730667-13.141333 2.133333-23.466667 11.093334-32.512 36.778667-37.12 63.146667-63.658667 87.637333-88.576l29.184-29.525333L607.829333 517.973333c1.877333-1.792 4.266667-3.242667 7.936-5.973333-3.669333-2.730667-5.973333-4.266667-7.936-6.058667l-87.04-87.893333-29.013333-29.269333c-24.32-24.746667-50.346667-51.029333-87.04-87.893334-1.962667-2.048-4.181333-4.266667-5.973333-6.485333a32.853333 32.853333 0 0 1 17.066666-52.309333c13.056-3.413333 23.978667 0.938667 33.621334 10.581333C546.133333 350.378667 582.826667 387.754667 679.594667 485.290667c17.408 17.664 17.408 35.754667 0 53.418666-40.106667 40.448-69.888 70.4-97.792 98.730667l-33.28 33.621333L450.986667 769.706667c-2.048 1.962667-3.84 3.925333-5.973334 5.632a32.512 32.512 0 0 1-52.650666-18.346667z" p-id="1695"></path></svg>