<svg t="1659498067044" class="icon" viewBox="0 0 1024 1024" version="1.1" xmlns="http://www.w3.org/2000/svg" p-id="5670" width="200" height="200"><path d="M469.12 747.392v176.512c0 2.197333-0.213333 4.522667-0.469333 7.146667a146.154667 146.154667 0 0 1-10.346667-3.562667l-114.154667-45.290667-0.597333-0.234666c-82.133333-32.618667-167.04-66.346667-250.666667-99.2-11.093333-4.352-14.336-7.317333-14.293333-18.474667 0.426667-166.784 0.426667-336.128 0.426667-499.904 0-53.76 0-107.52 0.042666-161.28V102.485333c7.850667 2.837333 14.656 5.312 21.397334 8 34.090667 13.546667 68.181333 27.114667 102.250666 40.704 82.133333 32.704 167.04 66.517333 250.816 99.52 13.248 5.226667 16.106667 8.789333 16.064 20.010667-0.469333 159.146667-0.469333 320.597333-0.469333 476.714667m94.08-473.92c-0.085333-16.853333 3.541333-22.122667 19.306667-28.245334 86.464-33.536 173.994667-68.522667 258.709333-102.378666l96.981333-38.698667c3.690667-1.450667 7.488-2.794667 12.010667-4.352v15.744l-0.021333 139.456v0.512c-0.064 163.072-0.106667 331.690667 0.533333 497.557333 0.064 17.130667-3.754667 23.061333-18.602667 28.842667a29384.618667 29384.618667 0 0 0-255.445333 101.269333l-95.210667 38.058667a693.76 693.76 0 0 1-17.728 6.698667v-14.293334l0.021334-140.416c0.064-163.712 0.128-333.013333-0.554667-499.754666m460.352 253.866666V524.885333a503378.709333 503378.709333 0 0 1 0-200.384c0-79.296 0.021333-161.28-0.042667-242.624-0.021333-33.728-9.813333-58.197333-28.288-70.741333-18.24-12.394667-43.989333-12.501333-74.453333-0.32l-44.16 17.642667C763.413333 73.706667 646.4 120.490667 531.562667 167.189333c-14.08 5.717333-25.173333 5.696-39.466667-0.149333A62446.378667 62446.378667 0 0 0 98.048 8.448C71.808-2.048 47.189333-0.938667 28.757333 11.584 10.453333 23.978667 0.32 46.293333 0.298667 74.325333 0.170667 184.021333 0.170667 295.552 0.170667 403.434667v1.408c0 120.32 0 244.714667-0.170667 367.829333-0.042667 36.394667 16.490667 60.672 50.56 74.261333 47.936 19.114667 96 38.464 142.485333 57.173334 92.885333 37.397333 188.949333 76.053333 284.010667 112.853333 9.813333 3.818667 21.632 5.824 34.133333 5.824 12.842667 0 25.621333-2.218667 35.989334-6.229333 108.970667-42.069333 219.093333-86.378667 325.589333-129.194667 32.042667-12.885333 64.085333-25.792 96.149333-38.613333 42.816-17.173333 54.549333-34.730667 54.592-81.706667 0.064-79.893333 0.042667-161.130667 0.042667-239.701333" p-id="5671"></path><path d="M326.442667 628.416l-1.92 4.842667 1.92-4.842667c-24.426667-9.642667-44.586667-17.685333-63.509334-25.258667l-79.829333-32.085333-34.730667-13.973333-13.504-5.226667-2.346666 14.357333c-4.757333 28.864-7.125333 43.349333-0.938667 55.637334 6.485333 12.864 19.776 18.24 43.882667 28.032 51.264 20.8 103.808 41.984 156.202666 62.933333 5.674667 2.261333 11.221333 3.882667 17.109334 5.610667l0.128 0.042666c2.496 0.725333 5.056 1.472 7.637333 2.282667l13.44 4.224 1.685333-14.016c3.498667-28.8 5.248-43.242667-1.28-55.317333-6.741333-12.544-19.178667-17.450667-43.946666-27.242667M355.050667 406.869333c-53.418667-22.613333-106.197333-43.690667-162.112-66.026666l-45.269334-18.133334-14.016-5.418666-1.92 14.976c-3.776 29.930667-5.674667 44.949333 1.152 57.557333 7.04 13.056 20.16 18.389333 46.293334 29.034667 50.581333 20.565333 101.610667 41.130667 151.68 61.141333 5.546667 2.197333 11.093333 3.925333 17.536 5.909333 3.2 1.002667 6.698667 2.069333 10.602666 3.328l15.317334 4.992v-16.149333c0-4.544 0.149333-8.682667 0.298666-12.672 0.341333-9.024 0.64-16.853333-0.981333-24.96-3.84-19.413333-9.557333-29.76-18.581333-33.578667M648.768 717.056l242.794667-97.450667V536.106667l-242.773334 97.28zM652.309333 469.141333l4.650667 10.090667 51.136-20.394667 135.04-53.866666c25.130667-10.026667 37.76-15.061333 44.842667-27.818667 6.4-11.52 5.653333-25.386667 3.434666-51.733333l-0.234666-2.816-0.213334-2.368-1.322666-15.786667-72.469334 28.906667-120.128 47.936c-24.533333 9.792-36.821333 14.72-44.010666 26.197333-7.168 11.456-6.293333 24.789333-4.544 51.370667 0.213333 3.477333 1.557333 5.973333 2.645333 7.957333 0.341333 0.661333 0.746667 1.408 1.173333 2.346667" p-id="5672"></path></svg>