<?xml version="1.0" encoding="UTF-8"?>
<svg width="12px" height="14px" viewBox="0 0 12 14" version="1.1" xmlns="http://www.w3.org/2000/svg" xmlns:xlink="http://www.w3.org/1999/xlink">
    <title>icon_class</title>
    <g id="页面-1" stroke="none" stroke-width="1" fill="none" fill-rule="evenodd">
        <g id="学习中心首页" transform="translate(-140.000000, -1493.000000)" fill="#999999" fill-rule="nonzero">
            <g id="编组-2备份-6" transform="translate(15.000000, 1401.000000)">
                <g id="icon_class" transform="translate(125.000000, 92.000000)">
                    <path d="M9.63157895,-5.42596271e-16 C10.9396218,-5.42596271e-16 12,1.06841139 12,2.38636364 L12,11.6136364 C12,12.2465393 11.7504706,12.8535203 11.3063055,13.3010503 C10.8621404,13.7485803 10.2597233,14 9.63157895,14 L2.36842105,14 C1.74027674,14 1.13785957,13.7485803 0.693694466,13.3010503 C0.249529359,12.8535203 0,12.2465393 0,11.6136364 L0,2.38636364 C0,1.75346065 0.249529359,1.14647972 0.693694466,0.698949727 C1.13785957,0.251419733 1.74027674,-5.42596271e-16 2.36842105,-5.42596271e-16 L9.63157895,-5.42596271e-16 Z M9.63157895,0.954545455 L7.10526316,0.954545455 L7.10526316,5.43677272 C7.10532723,5.85588032 6.7826394,6.20314291 6.36757895,6.23063636 L6.31578947,6.23222728 C6.10654782,6.23226665 5.90584886,6.14860939 5.75778947,5.99963636 L4.73526316,4.97031819 L3.71652632,5.99804545 C3.42386986,6.29335975 2.95446335,6.31058365 2.64126316,6.0375 L2.59989473,5.99868182 C2.45165543,5.84944902 2.36838196,5.64695683 2.36842105,5.43581818 L2.36842105,0.954545455 C1.58359536,0.954545455 0.947368422,1.59559229 0.947368422,2.38636364 L0.947368422,11.6136364 C0.947368422,12.4044077 1.58359536,13.0454545 2.36842105,13.0454545 L9.63157895,13.0454545 C10.4164046,13.0454545 11.0526316,12.4044077 11.0526316,11.6136364 L11.0526316,2.38636364 C11.0526316,1.59559229 10.4164046,0.954545455 9.63157895,0.954545455 Z M6.15789474,0.954545455 L3.31578948,0.954545455 L3.31578948,5.05145455 L4.19842105,4.16277273 L4.25084211,4.11727273 C4.56506065,3.87131932 5.01183113,3.8994114 5.29326316,4.18281818 L6.15789474,5.05272727 L6.15789474,0.954545455 L6.15789474,0.954545455 Z" id="形状"></path>
                </g>
            </g>
        </g>
    </g>
</svg>