<?xml version="1.0" encoding="UTF-8"?>
<svg width="20px" height="20px" viewBox="0 0 20 20" version="1.1" xmlns="http://www.w3.org/2000/svg" xmlns:xlink="http://www.w3.org/1999/xlink">
    <!-- Generator: Sketch 63 (92445) - https://sketch.com -->
    <title>xtqb_sign__code</title>
    <desc>Created with Sketch.</desc>
    <g id="页面-1" stroke="none" stroke-width="1" fill="none" fill-rule="evenodd">
        <g id="0801弹窗" transform="translate(-128.000000, -260.000000)">
            <g id="编组-13备份" transform="translate(108.000000, 250.000000)">
                <g id="icon_code" transform="translate(20.000000, 10.000000)">
                    <g transform="translate(1.250000, 0.625000)">
                        <path d="M16.977325,2.92584532 L16.8650068,2.90997541 C16.3951803,2.85732801 12.081244,2.3154167 9.03539776,0.106393758 C8.93843367,0.0360978823 8.82613319,0 8.70631906,0 C8.58835956,0 8.47420445,0.0360978823 8.37724036,0.106393758 C5.18531966,2.4205055 0.551611033,2.91060549 0.506006052,2.91440527 C0.240967718,2.93880894 0.0366473553,3.14358972 0.00443450563,3.39998686 L0.000341024444,3.52473452 C0.00504003998,3.96245202 0.0732723203,6.82472594 1.04239957,10.0143125 C1.65300224,12.0243946 2.49569575,13.7457173 3.55136309,15.1287887 C4.88867329,16.8823858 6.56635643,18.0926386 8.53514583,18.7233541 C8.59030931,18.7405243 8.6473512,18.75 8.70631906,18.75 C8.7653107,18.75 8.82232881,18.7405243 8.87563766,18.7233541 C10.8462817,18.0926386 12.522134,16.8843332 13.8593253,15.1287887 C14.913138,13.7475697 15.7577099,12.0281943 16.3682888,10.0143125 C17.3974206,6.62113531 17.4107143,3.59838889 17.4107143,3.47109636 C17.4124767,3.20637856 17.2303908,2.98320795 16.977325,2.92584532 Z M16.0329627,5.38088095 C15.8773333,6.79108695 15.5995995,8.24198117 15.172096,9.65151387 C14.6036147,11.5265446 13.8252593,13.1126812 12.8655407,14.3705723 C11.7292531,15.8623577 10.3368319,16.8941258 8.70510387,17.4625149 C7.08060046,16.8974727 5.68344253,15.8632031 4.54531486,14.3707914 C3.58653961,13.114662 2.80865913,11.5281529 2.23843425,9.65099302 C1.81022806,8.24168301 1.53238976,6.79109471 1.37706332,5.38112229 C1.32474121,4.90616943 1.28997921,4.46681338 1.26954557,4.07173405 L1.51385365,4.03211419 C2.16014737,3.92327067 2.85688445,3.7762938 3.58053462,3.58543495 C5.48788569,3.08238136 7.24195154,2.37098537 8.70616485,1.39916893 C10.1766792,2.37626634 11.9331054,3.0891972 13.8393058,3.59061279 C14.4418833,3.7491175 15.0254379,3.8768696 15.5765254,3.97730197 L16.0246344,4.05418031 L16.1423278,4.07271359 C16.1235962,4.42926333 16.0891886,4.87140115 16.0329627,5.38088095 Z" id="Fill-1" fill="#000000" fill-rule="nonzero"></path>
                        <path d="M11.0821791,6.9187064 L7.87806064,11.3346601 L6.24669599,9.86909512 C6.14950012,9.78240678 6.02490061,9.73425996 5.89656631,9.73425996 C5.73894953,9.73425996 5.58857317,9.80554132 5.48601572,9.93267299 C5.29347991,10.1695553 5.3191651,10.5297176 5.54641372,10.7318861 L7.61224987,12.5884513 C7.70756689,12.6731897 7.83956722,12.7232143 7.97149882,12.7232143 C7.98806473,12.7232143 8.004539,12.7232143 8.02099035,12.7213366 C8.16770067,12.7059055 8.3032983,12.6250429 8.39316209,12.501763 L11.9437442,7.6100706 C12.0317063,7.4887647 12.0683208,7.34044843 12.0481805,7.19018222 C12.0298274,7.0400123 11.9546507,6.90712709 11.8410722,6.81470928 C11.6009466,6.62212201 11.2618151,6.67026883 11.0821791,6.9187064 Z" id="Fill-2" fill="#3075FF"></path>
                    </g>
                </g>
            </g>
        </g>
    </g>
</svg>