<svg t="1649298084460" class="icon" viewBox="0 0 1024 1024" version="1.1" xmlns="http://www.w3.org/2000/svg" p-id="6298" width="200" height="200"><path d="M511.99825351 2.70241565c-281.39847111 0-509.51880135 228.02020011-509.51880135 509.2964204 0 281.27738425 228.11916515 509.29874944 509.51880135 509.29874944 281.39963506 0 509.5199653-228.02136405 509.5199653-509.29874944C1021.51821881 230.72261575 793.39788857 2.70241565 511.99825351 2.70241565L511.99825351 2.70241565zM804.24562574 379.89442674L474.71286841 709.28397539l-0.00698596 0.01047894c-15.19521451 15.19055758-38.36002873 17.55989789-56.0433425 7.11966378-3.2751616-1.93738752-6.36054414-4.31254869-9.1746452-7.11966378-0.00465693-0.00465693-0.00465693-0.00465693-0.00465692-0.00465692L219.75437426 519.6435968c-18.00815161-18.00116565-18.00815161-47.18887822 0-65.19470194 18.00815161-18.00116565 47.20634311-18.00116565 65.21682261 0l157.12976782 157.05874546 296.92667449-296.80442368c18.01513757-18.00000171 47.21565696-18.00000171 65.22380857 0C822.25494243 332.70554738 822.25494243 361.89325995 804.24562574 379.89442674L804.24562574 379.89442674zM804.24562574 379.89442674" p-id="6299"></path></svg>