<svg t="1648539783510" class="icon" viewBox="0 0 1024 1024" version="1.1" xmlns="http://www.w3.org/2000/svg" p-id="2392" width="200" height="200"><path d="M910.222 0H113.778C51.2 0 0 51.2 0 113.778v796.444C0 972.8 51.2 1024 113.778 1024h796.444C972.8 1024 1024 972.8 1024 910.222V113.778C1024 51.2 972.8 0 910.222 0z m-96.71 366.933L469.332 702.578c-5.689 5.689-14.222 8.533-22.755 8.533-8.534 0-17.067-2.844-22.756-8.533L236.09 520.533c-11.378-11.377-11.378-31.289 0-42.666 11.378-11.378 31.289-11.378 45.511 0L446.578 640 768 327.111c11.378-11.378 31.289-11.378 45.511 0 14.222 5.689 14.222 25.6 0 39.822z" p-id="2393"></path></svg>