<svg t="1649385759144" class="icon" viewBox="0 0 1024 1024" version="1.1" xmlns="http://www.w3.org/2000/svg" p-id="1808" width="200" height="200"><path d="M512 1024a512 512 0 1 1 0-1024 512 512 0 0 1 0 1024zM720.580923 642.83569199a39.384615 39.384615 0 0 0 50.254769-60.25846099l-250.643692-250.643693-5.513846-4.489846a39.384615 39.384615 0 0 0-50.254769 4.489846l-250.643693 250.643693-4.489846 5.513846a39.384615 39.384615 0 0 0 4.489846 50.25476901l5.513846 4.48984599a39.384615 39.384615 0 0 0 50.25477-4.489846L492.30769201 415.507692 715.067077 638.345846z"  p-id="1809"></path></svg>