<?xml version="1.0" standalone="no"?><!DOCTYPE svg PUBLIC "-//W3C//DTD SVG 1.1//EN" "http://www.w3.org/Graphics/SVG/1.1/DTD/svg11.dtd"><svg t="1669704938319" class="icon" viewBox="0 0 1024 1024" version="1.1" xmlns="http://www.w3.org/2000/svg" p-id="1716" xmlns:xlink="http://www.w3.org/1999/xlink" width="200" height="200"><path d="M512 1024A512 512 0 1 1 512 0a512 512 0 0 1 0 1024z m0-60.224A451.776 451.776 0 1 0 512 60.352a451.776 451.776 0 1 0 0 903.296v0.128z m6.016-355.968c88.96-88.192 117.568-116.16 206.528-204.416 9.088-8.96 19.328-13.888 32.512-11.072a32.512 32.512 0 0 1 18.432 52.608c-1.792 2.112-3.712 3.968-5.76 5.952-97.024 96.32-133.952 132.288-231.04 228.736-17.664 17.408-35.712 17.408-53.376 0-97.6-96.896-134.912-133.44-232.64-230.144-9.6-9.6-13.952-20.544-10.56-33.728a32.832 32.832 0 0 1 52.352-16.896c2.176 1.728 4.352 3.968 6.4 5.952 88.448 87.744 116.672 115.328 205.056 203.008 1.92 1.92 3.328 4.288 6.016 8 2.816-3.648 4.224-6.08 6.08-8z" p-id="1717"></path></svg>