<svg t="1649385845548" class="icon" viewBox="0 0 1024 1024" version="1.1" xmlns="http://www.w3.org/2000/svg" p-id="1810" width="200" height="200"><path d="M512 0a512 512 0 1 1 0 1024 512 512 0 0 1 0-1024zM303.419077 381.164308a39.384615 39.384615 0 0 0-50.254769 60.258461l250.643692 250.643693 5.513846 4.489846a39.384615 39.384615 0 0 0 50.254769-4.489846l250.643693-250.643693 4.489846-5.513846a39.384615 39.384615 0 0 0-4.489846-50.254769l-5.513846-4.489846a39.384615 39.384615 0 0 0-50.25477 4.489846L531.692308 608.492308 308.932923 385.654154z"  p-id="1811"></path></svg>