<?xml version="1.0" encoding="UTF-8"?>
<svg width="13px" height="13px" viewBox="0 0 13 13" version="1.1" xmlns="http://www.w3.org/2000/svg" xmlns:xlink="http://www.w3.org/1999/xlink">
    <title>xt_home_time</title>
    <g id="页面-1" stroke="none" stroke-width="1" fill="none" fill-rule="evenodd">
        <g id="活动列表-未参加" transform="translate(-30.000000, -304.000000)" fill="#C1C1C1" fill-rule="nonzero">
            <g id="编组-4备份" transform="translate(15.000000, 168.000000)">
                <g id="xt_home_time" transform="translate(15.000000, 136.000000)">
                    <path d="M6.25,0 C9.70177969,0 12.5,2.79822031 12.5,6.25 C12.5,9.70177969 9.70177969,12.5 6.25,12.5 C2.79822031,12.5 0,9.70177969 0,6.25 C0,2.79822031 2.79822031,0 6.25,0 Z M6.25,1 C3.35050506,1 1,3.35050506 1,6.25 C1,9.14949494 3.35050506,11.5 6.25,11.5 C9.14949494,11.5 11.5,9.14949494 11.5,6.25 C11.5,3.35050506 9.14949494,1 6.25,1 Z" id="Oval-2"></path>
                    <path d="M5.5,3 C5.74545989,3 5.94960837,3.17687516 5.99194433,3.41012437 L6,3.5 L6,7 L9.5,7 C9.74545989,7 9.94960837,7.17687516 9.99194433,7.41012437 L10,7.5 C10,7.74545989 9.82312484,7.94960837 9.58987563,7.99194433 L9.5,8 L5.5,8 C5.25454011,8 5.05039163,7.82312484 5.00805567,7.58987563 L5,7.5 L5,3.5 C5,3.22385763 5.22385763,3 5.5,3 Z" id="Path"></path>
                </g>
            </g>
        </g>
    </g>
</svg>