<svg t="1649660997064" class="icon" viewBox="0 0 1024 1024" version="1.1" xmlns="http://www.w3.org/2000/svg" p-id="3921" width="200" height="200"><path d="M1007.641747 929.26705L590.417019 511.905797l417.224728-417.224728a55.088409 55.088409 0 0 0 0-78.366162 55.293198 55.293198 0 0 0-78.434426 0L511.982593 433.67616 94.689603 16.314907a55.293198 55.293198 0 0 0-78.366163 0 55.293198 55.293198 0 0 0 0 78.366162L433.752957 511.97406 16.32344 929.26705a55.293198 55.293198 0 0 0 0 78.366163 55.293198 55.293198 0 0 0 78.366163 0L511.982593 590.27196l417.429517 417.156464a55.088409 55.088409 0 0 0 78.434426 0 55.293198 55.293198 0 0 0-0.204789-78.161374z" p-id="3922"></path></svg>