<?xml version="1.0" encoding="UTF-8"?>
<svg width="23px" height="24px" viewBox="0 0 23 24" version="1.1" xmlns="http://www.w3.org/2000/svg" xmlns:xlink="http://www.w3.org/1999/xlink">
    <title>wx_class_consult</title>
    <defs>
        <polygon id="path-1" points="0 6.66133815e-16 22.9541807 6.66133815e-16 22.9541807 21.8641833 0 21.8641833"></polygon>
    </defs>
    <g id="页面-1" stroke="none" stroke-width="1" fill="none" fill-rule="evenodd">
        <g id="系统课-课程详情页" transform="translate(-202.000000, -915.000000)">
            <g id="编组-6" transform="translate(0.000000, 906.000000)">
                <g id="wx_class_consult" transform="translate(202.000000, 9.500000)">
                    <g id="编组" transform="translate(0.022436, 0.513860)">
                        <g>
                            <mask id="mask-2" fill="white">
                                <use xlink:href="#path-1"></use>
                            </mask>
                            <g id="Clip-2"></g>
                            <path d="M11.4836262,21.8641833 C11.2555976,21.8641833 11.0277333,21.7751405 10.8566024,21.6056524 L8.4690381,19.2367619 L2.64883333,19.2367619 C1.18663571,19.2367619 0,18.0614619 0,16.6129548 L0,2.62320476 C0,1.17519048 1.18663571,6.66133815e-16 2.64883333,6.66133815e-16 L20.3085619,6.66133815e-16 C21.7707595,6.66133815e-16 22.9573952,1.17519048 22.9573952,2.62375238 L22.9573952,16.6135024 C22.9573952,18.0620095 21.7707595,19.2372 20.3085619,19.2372 L17.6597286,19.2372 C17.1705405,19.2372 16.776419,18.8469667 16.776419,18.3626524 C16.776419,17.8783381 17.1705405,17.4881048 17.6597286,17.4881048 L20.3085619,17.4881048 C20.7922738,17.4881048 21.191269,17.0977619 21.191269,16.6135024 L21.191269,2.62375238 C21.191269,2.14436667 20.7928214,1.74915 20.3085619,1.74915 L2.64883333,1.74915 C2.15964524,1.74915 1.76607143,2.14436667 1.76607143,2.62375238 L1.76607143,16.6129548 C1.76607143,17.097269 2.16019286,17.4875024 2.64883333,17.4875024 L8.82991905,17.4875024 C9.06457381,17.4876119 9.28986429,17.5804881 9.45628571,17.7460333 L11.4836262,19.7531667 L13.5103643,17.7460333 C13.8558024,17.4028405 14.4134429,17.4028405 14.7588262,17.7460333 C14.9250286,17.9087857 15.018781,18.1317214 15.018781,18.3642952 C15.018781,18.596869 14.9250286,18.8198048 14.7588262,18.9825571 L12.1099929,21.6056524 C11.9345357,21.7795214 11.7116,21.8641833 11.4836262,21.8641833" id="Fill-1" fill="#3075FF" mask="url(#mask-2)"></path>
                        </g>
                        <path d="M6.01267643,10.9321738 C5.41297881,10.9321738 4.91940976,10.4423833 4.91940976,9.8389619 C4.91940976,9.2352119 5.40892643,8.74569524 6.01267643,8.74569524 C6.61642643,8.74569524 7.10577881,9.2352119 7.10577881,9.8389619 C7.10577881,10.4427119 6.61642643,10.9321738 6.01267643,10.9321738 M11.478736,10.9321739 C10.8745479,10.9323381 10.3846479,10.4429857 10.3843739,9.8389619 C10.3840455,9.23488333 10.8735074,8.74487381 11.477586,8.74465459 C11.8683669,8.74443571 12.2295217,8.95275 12.4250764,9.29106905 C12.6206312,9.62933333 12.6208502,10.0462905 12.4255693,10.3848286 C12.2304526,10.7232024 11.8695169,10.9319548 11.478736,10.9321739 M16.944686,10.9321739 C16.3406074,10.9323381 15.8507074,10.4429857 15.8504334,9.8389619 C15.850105,9.23488333 16.3396217,8.74487381 16.9437002,8.74465459 C17.3344264,8.74443571 17.6955264,8.95275 17.8911907,9.29106905 C18.0867455,9.62933333 18.0869645,10.0462905 17.8916288,10.3848286 C17.6965121,10.7232024 17.3354121,10.9319548 16.944686,10.9321739" id="Fill-3" fill="#FF6F30"></path>
                    </g>
                </g>
            </g>
        </g>
    </g>
</svg>