<svg t="1648455773444" class="icon" viewBox="0 0 1024 1024" version="1.1" xmlns="http://www.w3.org/2000/svg" p-id="1566" width="200" height="200"><path d="M758.551273 83.642182a139.636364 139.636364 0 0 1 139.636363 139.636363v558.545455a139.636364 139.636364 0 0 1-139.636363 139.636364H252.369455a139.636364 139.636364 0 0 1-139.636364-139.636364v-558.545455a139.636364 139.636364 0 0 1 139.636364-139.636363h506.181818z m0 69.818182H252.369455a69.818182 69.818182 0 0 0-69.492364 63.069091l-0.325818 6.74909v558.545455a69.818182 69.818182 0 0 0 63.069091 69.492364l6.749091 0.325818h506.181818a69.818182 69.818182 0 0 0 69.492363-63.115637l0.325819-6.702545v-558.545455a69.818182 69.818182 0 0 0-63.115637-69.492363l-6.702545-0.325818z" p-id="1567"></path><path d="M302.545455 334.568727m34.90909 0l244.363637 0q34.909091 0 34.909091 34.909091l0 8.750546q0 34.909091-34.909091 34.909091l-244.363637 0q-34.909091 0-34.90909-34.909091l0-8.750546q0-34.909091 34.90909-34.909091Z" p-id="1568"></path><path d="M302.545455 517.818182m32.023272 0l145.408 0q32.023273 0 32.023273 32.023273l0 14.522181q0 32.023273-32.023273 32.023273l-145.408 0q-32.023273 0-32.023272-32.023273l0-14.522181q0-32.023273 32.023272-32.023273Z" p-id="1569"></path></svg>