<?xml version="1.0" encoding="UTF-8"?>
<svg width="30px" height="30px" viewBox="0 0 30 30" version="1.1" xmlns="http://www.w3.org/2000/svg" xmlns:xlink="http://www.w3.org/1999/xlink">
    <title>xt_mine_discount</title>
    <defs>
        <linearGradient x1="100%" y1="7.8447464%" x2="50%" y2="82%" id="linearGradient-1">
            <stop stop-color="#FFCF4B" offset="0%"></stop>
            <stop stop-color="#FFA134" offset="100%"></stop>
        </linearGradient>
    </defs>
    <g id="页面-1" stroke="none" stroke-width="1" fill="none" fill-rule="evenodd">
        <g id="个人中心-未登录" transform="translate(-279.000000, -210.000000)">
            <g id="编组-18" transform="translate(15.000000, 190.000000)">
                <g id="编组-12" transform="translate(264.000000, 20.000000)">
                    <rect id="矩形" fill="#FEE3A4" x="3" y="1" width="24" height="6" rx="2"></rect>
                    <path d="M12.0670956,11.1498262 C11.6588884,10.7554325 10.9857793,10.7191512 10.5296718,11.0668171 L10.4763223,11.1101297 C10.0450878,11.4833493 10.0052734,12.0987257 10.3856633,12.51574 L12.9104484,15.2857372 L11.249978,15.2857372 L11.1840602,15.2874649 C10.5892615,15.3194873 10.1248923,15.7696089 10.1248923,16.3143511 L10.126782,16.3746191 C10.1618063,16.9182766 10.6543005,17.3428445 11.249978,17.3428445 L14.0624725,17.3428445 L14.0624725,18.7142628 L11.249978,18.7142628 L11.1840602,18.7159904 C10.5892615,18.7480128 10.1248923,19.1982951 10.1248923,19.7428767 L10.126782,19.8031446 C10.1618063,20.3469628 10.6543005,20.7715307 11.249978,20.7715307 L14.0624725,20.7715307 L14.0624725,22.142949 L14.0643622,22.203217 C14.0993865,22.7468744 14.5917049,23.1714022 15.1875582,23.1714022 L15.2534761,23.1696745 C15.8480989,23.1378128 16.3124242,22.6875306 16.3124242,22.142949 L16.3124242,20.7715307 L18.750022,20.7715307 L18.8159398,20.7698031 C19.4105627,20.7377807 19.8749319,20.2874984 19.8749319,19.7428767 L19.8730422,19.682448 C19.8381937,19.1387905 19.3456995,18.7142628 18.750022,18.7142628 L16.3124242,18.7142628 L16.3124242,17.3428445 L18.750022,17.3428445 L18.8159398,17.3411168 C19.4105627,17.3092552 19.8749319,16.8589729 19.8749319,16.3143511 L19.8730422,16.2539224 C19.8381937,15.710265 19.3456995,15.2857372 18.750022,15.2857372 L17.0886727,15.2857372 L19.6143367,12.5154186 L19.6582819,12.4642711 C20.0210058,12.016038 19.9269191,11.3852732 19.4462901,11.0420269 C18.9656173,10.6987806 18.2734799,10.7681289 17.8855315,11.1984826 L14.9999121,14.364762 L12.1142927,11.1984826 L12.0670956,11.1498262 Z M25.8749934,5 C28.153114,5 30,6.68858859 30,8.77145038 L30,13.5713941 C30,14.1395204 29.4963438,14.600008 28.8749143,14.600008 C27.4252492,14.600008 26.2498901,15.6744658 26.2498901,17.0000804 C26.2498901,18.325494 27.4252492,19.3999518 28.8749143,19.3999518 C29.4963438,19.3999518 30,19.8606001 30,20.4286059 L30,25.2285496 C30,27.3115319 28.153114,29 25.8749934,29 L4.12500659,29 C1.84688604,29 0,27.3115319 0,25.2285496 L0,20.4286059 C0,19.8606001 0.503656243,19.3999518 1.12508569,19.3999518 C2.57475083,19.3999518 3.74993408,18.325494 3.74993408,17.0000804 C3.74993408,15.6744658 2.57475083,14.600008 1.12508569,14.600008 C0.503656243,14.600008 0,14.1395204 0,13.5713941 L0,8.77145038 C0,6.68858859 1.84688604,5 4.12500659,5 L25.8749934,5 Z" id="Fill-1" fill="url(#linearGradient-1)"></path>
                </g>
            </g>
        </g>
    </g>
</svg>