<?xml version="1.0" encoding="UTF-8"?>
<svg width="17px" height="15px" viewBox="0 0 17 15" version="1.1" xmlns="http://www.w3.org/2000/svg" xmlns:xlink="http://www.w3.org/1999/xlink">
    <title>cupon</title>
    <g id="页面-1" stroke="none" stroke-width="1" fill="none" fill-rule="evenodd">
        <g id="订单详情-待支付备份" transform="translate(-30.000000, -371.000000)" fill="">
            <g id="编组-8" transform="translate(15.000000, 353.000000)">
                <g id="编组-7" transform="translate(15.000000, 15.000000)">
                    <path d="M5.96701325,6.7917607 C6.23745217,6.56447503 6.63937522,6.60136407 6.86476589,6.87405162 L8.4999502,8.85297623 L10.1351345,6.87405162 C10.3606248,6.60126362 10.7626474,6.56447503 11.033186,6.7917607 C11.3036996,7.01912169 11.3402811,7.4245495 11.1147908,7.69733749 L9.68358118,9.42858578 L10.6250125,9.42858578 C10.9625631,9.42858578 11.2416431,9.69391561 11.2613906,10.0337015 L11.2624614,10.0714695 C11.2624614,10.4264731 10.9770562,10.7142778 10.6250125,10.7142778 L9.24370704,10.7142778 L9.24370704,11.5714142 L10.6250125,11.5714142 C10.9625631,11.5714142 11.2416431,11.8367441 11.2613906,12.17653 L11.2624614,12.2142979 C11.2624614,12.5693015 10.9770562,12.8572067 10.6250125,12.8572067 L9.24370704,12.8572067 L9.24370704,13.7143431 C9.24370704,14.0547066 8.98058939,14.336133 8.64363644,14.3560466 L8.606283,14.3571264 C8.25413964,14.3571264 7.96873444,14.0693216 7.96873444,13.7143431 L7.96873444,12.8572067 L6.37498755,12.8572067 C6.03743694,12.8572067 5.75835692,12.5918518 5.73850979,12.2519654 L5.73742685,12.2142979 C5.73742685,11.859219 6.0229438,11.5714142 6.37498755,11.5714142 L7.96873444,11.5714142 L7.96873444,10.7142778 L6.37498755,10.7142778 C6.03743694,10.7142778 5.75835692,10.4489229 5.73850979,10.109137 L5.73742685,10.0714695 C5.73742685,9.71639055 6.0229438,9.42858578 6.37498755,9.42858578 L7.31592077,9.42858578 L5.88520921,7.6971366 C5.66985416,7.43652776 5.69231603,7.05199286 5.93658264,6.81883107 L5.96701325,6.7917607 Z M14.6624963,4.28569204 L2.33750374,4.28569204 C2.05570936,4.28569204 1.78546966,4.39859408 1.58615169,4.59948739 C1.38693333,4.80048114 1.27497261,5.0729678 1.27497261,5.35715649 L1.27497261,7.78886951 C2.49324269,8.07900966 3.40003486,9.18276771 3.40003486,10.5000502 C3.40003486,11.8172323 2.49324269,12.9210657 1.27497261,13.2111305 L1.27497261,15.6428435 C1.27497261,15.9270071 1.38693333,16.1995942 1.58615169,16.4004875 C1.78546966,16.6013808 2.05570936,16.7142828 2.33750374,16.7142828 L14.6624963,16.7142828 C14.9442906,16.7142828 15.2145303,16.6013808 15.4137487,16.4004875 C15.6130667,16.1995942 15.7249278,15.9270071 15.7249278,15.6428435 L15.7249278,13.2111305 C14.5067573,12.9210657 13.5999651,11.8172323 13.5999651,10.5000502 C13.5999651,9.18276771 14.5067573,8.07900966 15.7249278,7.78886951 L15.7249278,5.35715649 C15.7249278,5.0729678 15.6130667,4.80048114 15.4137487,4.59948739 C15.2145303,4.39859408 14.9442906,4.28569204 14.6624963,4.28569204 L14.6624963,4.28569204 Z M14.6624963,3 C15.9534312,3 17,4.05536787 17,5.35715649 L17,8.35712133 C17,8.71220025 16.7145948,9 16.3624514,9 C15.5409745,9 14.8749377,9.67154112 14.8749377,10.5000502 C14.8749377,11.3284338 15.5409745,11.9999699 16.3624514,11.9999699 C16.7145948,11.9999699 17,12.2878751 17,12.6428787 L17,15.6428435 C17,16.9447075 15.9534312,18 14.6624963,18 L2.33750374,18 C1.04656876,18 0,16.9447075 0,15.6428435 L0,12.6428787 C0,12.2878751 0.285405204,11.9999699 0.637548559,11.9999699 C1.45902547,11.9999699 2.12496265,11.3284338 2.12496265,10.5000502 C2.12496265,9.67154112 1.45902547,9 0.637548559,9 C0.285405204,9 0,8.71220025 0,8.35712133 L0,5.35715649 C0,4.05536787 1.04656876,3 2.33750374,3 L14.6624963,3 Z" id="cupon"></path>
                </g>
            </g>
        </g>
    </g>
</svg>