<?xml version="1.0" encoding="UTF-8"?><svg version="1.1" width="25px" height="25px" viewBox="0 0 25.0 25.0" xmlns="http://www.w3.org/2000/svg" xmlns:xlink="http://www.w3.org/1999/xlink"><defs><clipPath id="i0"><path d="M375,0 L375,723 L0,723 L0,0 L375,0 Z"></path></clipPath></defs><g transform="translate(-175.0 -679.0)"><g clip-path="url(#i0)"><g transform="translate(0.0 674.0)"><g transform="translate(172.5 5.5)"><g transform="translate(4.0 4.0)"><path d="M7.56693185,0 L10.6647322,0 L13.7752308,0 C14.3820995,-9.04739887e-16 14.9561429,0.27554753 15.3357228,0.74905443 L20.1277279,6.72684097 C20.7788444,7.53907614 20.6980223,8.71496233 19.9418994,9.43047385 L12.007621,16.938602 C11.2362067,17.6685835 10.0287573,17.6683205 9.2576612,16.9380028 L1.34329094,9.44217395 C0.585096992,8.72407613 0.507003044,7.54352359 1.16399948,6.73181045 L6.01234407,0.741724658 C6.39207258,0.272573526 6.96336203,9.99052397e-16 7.56693185,0 Z" stroke="#656C7F" stroke-width="2" fill="none" stroke-linecap="round" stroke-linejoin="round"></path><g transform="translate(7.385446390933026 9.602442689353204)"><path d="M0,0 L3.25455361,3.47280254 L6.87668127,0" stroke="#656C7F" stroke-width="2" fill="none" stroke-linecap="round" stroke-linejoin="round"></path></g></g></g></g></g></g></svg>