<svg t="1649733488572" class="icon" viewBox="0 0 1024 1024" version="1.1" xmlns="http://www.w3.org/2000/svg" p-id="3526" width="200" height="200"><path d="M768 0a256 256 0 0 1 256 256v768L0 0h768z m65.696 234.144l-177.312 186.08-72.224-75.808a24.384 24.384 0 0 0-24.32-6.752 25.28 25.28 0 0 0-17.472 18.176 26.176 26.176 0 0 0 6.272 24.48l90.016 94.528c4.736 4.96 11.104 7.68 17.76 7.68l3.84-0.32a25.088 25.088 0 0 0 13.92-7.36l195.008-204.8a26.176 26.176 0 0 0 0-35.904 24.352 24.352 0 0 0-35.52 0z"  p-id="3527"></path></svg>