<svg t="1649297410066" class="icon" viewBox="0 0 1024 1024" version="1.1" xmlns="http://www.w3.org/2000/svg" p-id="6033" width="200" height="200"><path d="M820.155733 1022.5664H201.659733A201.9328 201.9328 0 0 1 0 820.872533V202.410667A201.9328 201.9328 0 0 1 201.659733 0.750933h309.248a40.3456 40.3456 0 0 1 0 80.657067h-309.248A121.275733 121.275733 0 0 0 80.657067 202.410667v618.496a121.275733 121.275733 0 0 0 121.002666 120.968533h618.496a121.275733 121.275733 0 0 0 121.002667-121.002667v-309.248a40.3456 40.3456 0 1 1 80.657067 0v309.248a201.966933 201.966933 0 0 1-201.659734 201.693867z" p-id="6034"></path><path d="M854.016 92.433067l37.922133 38.1952 38.1952 37.888-185.5488 185.5488-221.866666 221.5936-83.626667 7.7824 7.850667-83.626667 221.525333-221.866667 185.5488-185.514666z m0-91.682134c-14.336 0-28.0576 5.666133-38.161067 15.837867l-204.3904 204.3904-235.008 236.885333a26.9312 26.9312 0 0 0-7.7824 16.384l-15.086933 167.560534a26.897067 26.897067 0 0 0 26.897067 29.2864h2.423466l167.5264-15.018667a26.9312 26.9312 0 0 0 16.384-7.850667L1006.7968 208.349867a53.76 53.76 0 0 0 0-76.117334l-57.821867-58.5728-57.002666-57.002666a53.794133 53.794133 0 0 0-37.888-15.872z" p-id="6035"></path></svg>