<?xml version="1.0" encoding="UTF-8"?>
<svg width="34px" height="30px" viewBox="0 0 34 30" version="1.1" xmlns="http://www.w3.org/2000/svg" xmlns:xlink="http://www.w3.org/1999/xlink">
    <title>编组</title>
    <defs>
        <polygon id="path-1" points="0 0 34 0 34 30 0 30"></polygon>
    </defs>
    <g id="页面-1" stroke="none" stroke-width="1" fill="none" fill-rule="evenodd">
        <g id="选择项目" transform="translate(-28.000000, -244.000000)">
            <g id="km_project_choose" transform="translate(15.000000, 224.000000)">
                <g id="编组" transform="translate(13.000000, 20.000000)">
                    <mask id="mask-2" fill="white">
                        <use xlink:href="#path-1"></use>
                    </mask>
                    <g id="Clip-2"></g>
                    <path d="M25.0562896,15.381877 L14.8624637,15.381877 C14.0130036,15.381877 13.3334356,14.7137246 13.3334356,13.8784403 C13.3334356,13.0430809 14.0130036,12.3749285 14.8624637,12.3749285 L25.0562896,12.3749285 C25.9055971,12.3749285 26.5852414,13.0430809 26.5852414,13.8784403 C26.5852414,14.7137246 25.9055971,15.381877 25.0562896,15.381877 M25.0562896,21.3125082 L14.8624637,21.3125082 C14.0130036,21.3125082 13.3334356,20.6442807 13.3334356,19.8089964 C13.3334356,18.9737121 14.0130036,18.3055597 14.8624637,18.3055597 L25.0562896,18.3055597 C25.9055971,18.3055597 26.5852414,18.9737121 26.5852414,19.8089964 C26.5852414,20.6442807 25.9055971,21.3125082 25.0562896,21.3125082 M9.25595101,15.4653679 C8.32158308,15.4653679 7.64193874,14.7972905 7.64193874,13.8784403 C7.64193874,13.0018231 8.36453288,12.2912875 9.25595101,12.2912875 C10.1472928,12.2912875 10.8699633,13.0018231 10.8699633,13.8784403 C10.8699633,14.7549074 10.1472928,15.4653679 9.25595101,15.4653679 M9.25595101,21.3961491 C8.32158308,21.3961491 7.64193874,20.7278467 7.64193874,19.8089964 C7.64193874,18.8902212 8.32158308,18.2219937 9.25595101,18.2219937 C10.1472928,18.2219937 10.8699633,18.9326042 10.8699633,19.8089964 C10.8699633,20.6856136 10.1472928,21.3961491 9.25595101,21.3961491 M32.0219384,26.1573072 L32.0219384,7.36307259 C32.0219384,5.10776743 29.8981738,5.27489931 29.8981738,5.27489931 L17.9205962,5.27489931 C17.2410282,5.27489931 16.8164126,4.94071057 16.8164126,4.94071057 C16.8164126,4.94071057 16.306584,4.10542626 15.3721398,2.76897135 C14.522756,1.26545959 13.4184197,1.51593236 13.4184197,1.51593236 L4.15919063,1.51593236 C1.52575,1.51593236 1.52575,3.93836939 1.52575,3.93836939 L1.52575,25.9902504 C1.52575,28.7467261 3.64951459,28.4125374 3.64951459,28.4125374 L30.1531263,28.4125374 C32.3617225,28.4125374 32.0219384,26.1573072 32.0219384,26.1573072" id="Fill-1" fill="#FFFFFF" mask="url(#mask-2)"></path>
                </g>
            </g>
        </g>
    </g>
</svg>