<svg t="1649494130899" class="icon" viewBox="0 0 1024 1024" version="1.1" xmlns="http://www.w3.org/2000/svg" p-id="1624" width="200" height="200"><path d="M706.740706 260.999529L490.435765 26.262588C478.268235 9.758118 459.113412 0 438.633412 0H120.470588a120.470588 120.470588 0 0 0-120.470588 120.470588v140.528941h706.740706zM434.537412 72.282353L542.117647 188.717176H72.282353V120.470588a48.188235 48.188235 0 0 1 42.164706-47.826823L120.470588 72.282353h314.066824z" p-id="1625"></path><path d="M903.529412 192.752941a120.470588 120.470588 0 0 1 120.470588 120.470588v542.117647a120.470588 120.470588 0 0 1-120.470588 120.470589H120.470588a120.470588 120.470588 0 0 1-120.470588-120.470589v-662.588235h903.529412z m0 72.282353H120.470588a48.188235 48.188235 0 0 0-47.826823 42.164706l-0.361412 6.023529v542.117647a48.188235 48.188235 0 0 0 42.164706 47.826824L120.470588 903.529412h783.058824a48.188235 48.188235 0 0 0 47.826823-42.164706l0.361412-6.02353v-542.117647a48.188235 48.188235 0 0 0-42.164706-47.826823L903.529412 265.035294z" p-id="1626"></path><path d="M212.811294 445.741176m36.141177 0l228.894117 0q36.141176 0 36.141177 36.141177l0 0q0 36.141176-36.141177 36.141176l-228.894117 0q-36.141176 0-36.141177-36.141176l0 0q0-36.141176 36.141177-36.141177Z" p-id="1627"></path></svg>