<svg t="1648455404653" class="icon" viewBox="0 0 1024 1024" version="1.1" xmlns="http://www.w3.org/2000/svg" p-id="1592" width="200" height="200"><path d="M312.506182 512h99.746909c36.584727 0 66.513455-30.487273 66.513454-67.723636v-50.734546c0-64.325818-53.201455-118.504727-116.363636-118.504727s-116.363636 54.178909-116.363636 118.504727v50.734546c0 37.236364 29.928727 67.723636 66.466909 67.723636z m0-67.723636v-50.734546c0-27.089455 23.272727-50.781091 49.896727-50.781091 26.577455 0 49.850182 23.691636 49.850182 50.734546v50.781091H312.506182z m332.474182 101.562181h166.260363c19.921455 0 33.233455 13.544727 33.233455 33.885091 0 20.293818-13.312 33.838545-33.233455 33.838546h-166.260363c-19.921455 0-33.233455-13.544727-33.233455-33.838546 0-20.340364 13.312-33.885091 33.233455-33.885091z m0-169.239272h166.260363c19.921455 0 33.233455 13.498182 33.233455 33.838545s-13.312 33.838545-33.233455 33.838546h-166.260363c-19.921455 0-33.233455-13.498182-33.233455-33.838546 0-20.293818 13.312-33.838545 33.233455-33.838545zM262.656 545.838545h199.493818c46.545455 0 83.083636 37.236364 83.083637 84.619637v16.942545c0 37.236364-29.928727 67.723636-66.46691 67.723637h-232.727272c-36.584727 0-66.513455-30.487273-66.513455-67.723637v-16.942545c0-47.383273 36.584727-84.619636 83.130182-84.619637z m0 67.723637c-9.960727 0-16.616727 6.749091-16.616727 16.896v16.942545h232.727272v-16.942545c0-10.146909-6.656-16.896-16.616727-16.896H262.656z m714.798545-372.363637v541.60291C977.454545 840.378182 934.213818 884.363636 877.707636 884.363636H146.292364C89.786182 884.363636 46.545455 840.378182 46.545455 782.801455V241.198545C46.545455 183.621818 89.786182 139.636364 146.292364 139.636364h731.415272C934.213818 139.636364 977.454545 183.621818 977.454545 241.198545z m-66.513454 0c0-20.340364-13.265455-33.838545-33.233455-33.838545H146.292364c-19.968 0-33.233455 13.498182-33.233455 33.838545v541.60291c0 20.340364 13.265455 33.838545 33.233455 33.838545h731.415272c19.968 0 33.233455-13.498182 33.233455-33.838545V241.198545z" p-id="1593"></path></svg>