<svg t="1659498081228" class="icon" viewBox="0 0 1024 1024" version="1.1" xmlns="http://www.w3.org/2000/svg" p-id="5808" width="200" height="200"><path d="M980.949333 712.213333l-0.64 0.341334c-15.573333 8.298667-34.986667 18.624-37.824 20.053333l-430.976 210.816L84.906667 734.677333l0.085333-0.213333-3.669333-1.536-4.48-2.176-0.042667 0.106667C66.517333 725.930667 37.12 711.232 14.997333 697.792L0 688.746667v18.389333c0 8.042667 0.618667 29.056 6.250667 50.56 5.888 22.464 15.253333 37.44 27.818666 44.501333l425.92 203.221334c18.176 9.109333 33.685333 15.146667 50.304 15.146666 14.378667 0 29.098667-4.202667 52.629334-15.061333l425.621333-203.072c12.138667-6.016 21.44-20.672 27.626667-43.562667a213.333333 213.333333 0 0 0 6.869333-51.733333v-17.28l-14.506667 7.701333-27.584 14.677334" p-id="5809"></path><path d="M100.266667 316.096L511.530667 81.28 922.816 316.096l-411.306667 183.957333-411.242666-183.957333z m-66.197334 60.757333l425.92 203.242667c18.176 9.088 33.706667 15.146667 50.346667 15.146667 14.336 0 29.077333-4.224 52.586667-15.082667L988.544 377.109333c17.514667-8.682667 28.885333-30.272 29.674667-56.32 0.832-27.562667-10.624-52.330667-29.226667-63.146666L563.925333 19.434667c-35.413333-22.272-62.72-22.357333-104.341333-0.256L33.877333 257.770667l-0.554666 0.341333c-19.093333 13.013333-30.293333 37.610667-29.248 64.106667 0.938667 24.170667 12.16 44.586667 29.973333 54.634666z" p-id="5810"></path><path d="M985.429333 497.194667c-17.877333 9.493333-38.016 20.224-42.453333 22.464l-431.466667 211.136L84.906667 522.005333l0.085333-0.234666-3.733333-1.536-4.416-2.154667-0.064 0.128c-10.24-4.928-39.68-19.626667-61.76-33.024L0 476.074667V494.485333c0 3.584 0.213333 22.549333 4.373333 42.666667 5.546667 26.773333 15.530667 44.373333 29.696 52.352l425.92 203.221333c18.176 9.109333 33.685333 15.168 50.325334 15.168 14.357333 0 29.098667-4.224 52.608-15.082666l425.6-203.093334c12.16-5.973333 21.461333-20.629333 27.648-43.52A213.141333 213.141333 0 0 0 1023.04 494.485333V477.184l-37.610667 20.010667z" p-id="5811"></path></svg>