<svg t="1659497971373" class="icon" viewBox="0 0 1024 1024" version="1.1" xmlns="http://www.w3.org/2000/svg" p-id="5532" width="200" height="200"><path d="M123.904 510.549333a66.858667 66.858667 0 0 1 66.773333-66.773333h655.701334a66.858667 66.858667 0 0 1 66.773333 66.773333v364.266667a66.858667 66.858667 0 0 1-66.773333 66.773333H190.698667a66.858667 66.858667 0 0 1-66.794667-66.773333V510.549333z m180.117333-146.666666v-67.456c0-118.293333 96.213333-214.506667 214.506667-214.506667 118.272 0 214.506667 96.213333 214.506667 214.506667v67.456h-429.013334z m539.733334-2.496h-30.058667v-66.218667C813.696 132.394667 681.28 0 518.528 0 355.754667 0 223.36 132.416 223.36 295.168v66.218667H193.28C110.250667 361.386667 42.666667 428.949333 42.666667 512v361.386667A150.805333 150.805333 0 0 0 193.28 1024h650.496a150.784 150.784 0 0 0 150.613333-150.613333V512a150.784 150.784 0 0 0-150.613333-150.613333z" p-id="5533"></path><path d="M518.528 807.168a42.24 42.24 0 0 0 42.197333-42.218667v-144.533333a42.24 42.24 0 0 0-42.197333-42.218667 42.24 42.24 0 0 0-42.197333 42.218667v144.533333a42.24 42.24 0 0 0 42.197333 42.24" p-id="5534"></path></svg>