<?xml version="1.0" encoding="UTF-8"?>
<svg width="30px" height="30px" viewBox="0 0 30 30" version="1.1" xmlns="http://www.w3.org/2000/svg" xmlns:xlink="http://www.w3.org/1999/xlink">
    <title>xt_mine_express</title>
    <defs>
        <linearGradient x1="82.1536425%" y1="15.2777778%" x2="16.9509691%" y2="90.4184071%" id="linearGradient-1">
            <stop stop-color="#8ABAFF" offset="0%"></stop>
            <stop stop-color="#3075FF" offset="100%"></stop>
        </linearGradient>
    </defs>
    <g id="页面-1" stroke="none" stroke-width="1" fill="none" fill-rule="evenodd">
        <g id="个人中心-未登录" transform="translate(-173.000000, -210.000000)">
            <g id="编组-18" transform="translate(15.000000, 190.000000)">
                <g id="编组-2" transform="translate(158.000000, 20.000000)">
                    <rect id="矩形" fill="#CDE0FF" x="12" y="1" width="16" height="7" rx="1"></rect>
                    <path d="M18.3530495,19.999329 L19.4023908,15.3226787 L17.3036647,15.3226787 L18.8776333,10.6462434 L22.5502411,10.6462434 L20.976316,13.6332036 L23.0749987,13.6332036 L18.3530495,19.999329 Z M18.4607199,25.5690886 C18.4607199,24.3097572 19.4926012,23.2841228 20.7679244,23.2841228 C22.0395559,23.2841228 23.0749987,24.3097572 23.0749987,25.5690886 C23.0749987,26.8285921 22.0395559,27.8540544 20.7679244,27.8540544 C19.4961627,27.8540544 18.4607199,26.8285921 18.4607199,25.5690886 Z M8.64824914,18.8567385 L1.72342154,18.8567385 L3.45379235,14.8547255 L8.64824914,14.8547255 L8.64824914,18.8567385 Z M3.45718013,25.5690886 C3.45718013,24.3097572 4.4926229,23.2841228 5.76438465,23.2841228 C7.03614639,23.2841228 8.07158917,24.3097572 8.07158917,25.5690886 C8.07158917,26.8285921 7.03614639,27.8540544 5.76438465,27.8540544 C4.4926229,27.8540544 3.45718013,26.8285921 3.45718013,25.5690886 Z M10.6775693,4 C10.1945509,4 9.80195999,4.46459811 9.80195999,5.03569977 L9.80195999,13.1410763 L2.87695865,13.1410763 L0,19.5244935 L0,25.4761776 C0,25.8445095 0.302163398,26.1437604 0.674080198,26.1437604 L2.35167992,26.1437604 C2.62483007,27.7620897 4.05021434,29 5.76438465,29 C7.47551464,29 8.90046459,27.7620897 9.17609042,26.1437604 L17.3552631,26.1437604 C17.6283699,27.7620897 19.0537541,29 20.7679244,29 C22.4788807,29 23.9039609,27.7620897 24.1796302,26.1437604 L29.1243907,26.1437604 C29.6038476,26.1437604 30,25.6793344 30,25.1080177 L30,5.03569977 C30,4.46459811 29.6074091,4 29.1243907,4 L10.6775693,4 Z" id="Fill-1" fill="url(#linearGradient-1)"></path>
                </g>
            </g>
        </g>
    </g>
</svg>