<?xml version="1.0" encoding="UTF-8"?>
<svg width="30px" height="30px" viewBox="0 0 30 30" version="1.1" xmlns="http://www.w3.org/2000/svg" xmlns:xlink="http://www.w3.org/1999/xlink">
    <title>xt_mine_order</title>
    <defs>
        <linearGradient x1="76.2040197%" y1="20.3433876%" x2="16.9509691%" y2="89.5636603%" id="linearGradient-1">
            <stop stop-color="#FF9282" offset="0%"></stop>
            <stop stop-color="#FF5965" offset="100%"></stop>
        </linearGradient>
    </defs>
    <g id="页面-1" stroke="none" stroke-width="1" fill="none" fill-rule="evenodd">
        <g id="个人中心-未登录" transform="translate(-62.000000, -210.000000)">
            <g id="编组-18" transform="translate(15.000000, 190.000000)">
                <g id="编组-9" transform="translate(47.000000, 20.000000)">
                    <path d="M8,1 L22,1 C23.1045695,1 24,1.8954305 24,3 L24,5 L24,5 L6,5 L6,3 C6,1.8954305 6.8954305,1 8,1 Z" id="矩形" fill="#FFBAB8"></path>
                    <path d="M24.0545364,5 C25.5519222,5 26.8200203,6.1041458 27.0260132,7.58729489 L29.5260132,25.5872949 C29.7539439,27.2283962 28.6083428,28.7435461 26.9672415,28.9714768 C26.8304933,28.9904696 26.6925972,29 26.5545364,29 L3.44546364,29 C1.78860939,29 0.445463641,27.6568542 0.445463641,26 C0.445463641,25.8619392 0.454994021,25.7240431 0.473986821,25.5872949 L2.97398682,7.58729489 C3.17997975,6.1041458 4.44807782,5 5.94546364,5 L24.0545364,5 Z M21,12.75 C20.3096441,12.75 19.75,13.3096441 19.75,14 C19.75,16.6233526 17.6233526,18.75 15,18.75 C12.3766474,18.75 10.25,16.6233526 10.25,14 C10.25,13.3096441 9.69035594,12.75 9,12.75 C8.30964406,12.75 7.75,13.3096441 7.75,14 C7.75,18.0040644 10.9959356,21.25 15,21.25 C19.0040644,21.25 22.25,18.0040644 22.25,14 C22.25,13.3096441 21.6903559,12.75 21,12.75 Z" id="形状结合" fill="url(#linearGradient-1)"></path>
                </g>
            </g>
        </g>
    </g>
</svg>