<?xml version="1.0" encoding="UTF-8"?>
<svg width="19px" height="19px" viewBox="0 0 19 19" version="1.1" xmlns="http://www.w3.org/2000/svg" xmlns:xlink="http://www.w3.org/1999/xlink">
    <!-- Generator: Sketch 63.1 (92452) - https://sketch.com -->
    <title>xt_class_pack up</title>
    <desc>Created with Sketch.</desc>
    <g id="ios" stroke="none" stroke-width="1" fill="none" fill-rule="evenodd">
        <g id="公开课-近期直播备份" transform="translate(-341.000000, -131.000000)" fill="#333333">
            <g id="xt_class_pack-up" transform="translate(341.000000, 131.000000)">
                <path d="M0.75,1 L18.25,1 C18.6642136,1 19,1.33578644 19,1.75 C19,2.16421356 18.6642136,2.5 18.25,2.5 L0.75,2.5 C0.335786438,2.5 5.07265313e-17,2.16421356 0,1.75 C-5.07265313e-17,1.33578644 0.335786438,1 0.75,1 Z" id="矩形"></path>
                <path d="M0.75,8.5 L18.25,8.5 C18.6642136,8.5 19,8.83578644 19,9.25 C19,9.66421356 18.6642136,10 18.25,10 L0.75,10 C0.335786438,10 5.07265313e-17,9.66421356 0,9.25 C-5.07265313e-17,8.83578644 0.335786438,8.5 0.75,8.5 Z" id="矩形备份-7"></path>
                <path d="M0.75,16 L11.25,16 C11.6642136,16 12,16.3357864 12,16.75 C12,17.1642136 11.6642136,17.5 11.25,17.5 L0.75,17.5 C0.335786438,17.5 5.07265313e-17,17.1642136 0,16.75 C-5.07265313e-17,16.3357864 0.335786438,16 0.75,16 Z" id="矩形备份-8"></path>
                <path d="M16.9472136,13.3944272 L18.6381966,16.7763932 C18.7616912,17.0233825 18.6615791,17.323719 18.4145898,17.4472136 C18.3451621,17.4819275 18.2686056,17.5 18.190983,17.5 L14.809017,17.5 C14.5328746,17.5 14.309017,17.2761424 14.309017,17 C14.309017,16.9223775 14.3270895,16.8458209 14.3618034,16.7763932 L16.0527864,13.3944272 C16.176281,13.1474379 16.4766175,13.0473258 16.7236068,13.1708204 C16.8203705,13.2192022 16.8988317,13.2976635 16.9472136,13.3944272 Z" id="三角形"></path>
            </g>
        </g>
    </g>
</svg>