<svg t="1649729018765" class="icon" viewBox="0 0 1024 1024" version="1.1" xmlns="http://www.w3.org/2000/svg" p-id="2335" width="200" height="200"><path d="M40.421053 53.894737h943.157894a40.421053 40.421053 0 1 1 0 80.842105H40.421053a40.421053 40.421053 0 0 1 0-80.842105zM40.421053 458.105263h943.157894a40.421053 40.421053 0 1 1 0 80.842105H40.421053a40.421053 40.421053 0 0 1 0-80.842105zM40.421053 862.315789h565.894736a40.421053 40.421053 0 1 1 0 80.842106H40.421053a40.421053 40.421053 0 1 1 0-80.842106zM913.354105 921.923368l91.136-182.272a26.947368 26.947368 0 0 0-24.090947-39.019789h-182.272a26.947368 26.947368 0 0 0-24.090947 39.019789l91.082105 182.272a26.947368 26.947368 0 0 0 48.235789 0z" p-id="2336"></path></svg>