<svg t="1649494107595" class="icon" viewBox="0 0 1024 1024" version="1.1" xmlns="http://www.w3.org/2000/svg" p-id="1480" width="200" height="200"><path d="M843.294118 0a120.470588 120.470588 0 0 1 120.470588 120.470588v783.058824a120.470588 120.470588 0 0 1-120.470588 120.470588H180.705882a120.470588 120.470588 0 0 1-120.470588-120.470588V120.470588a120.470588 120.470588 0 0 1 120.470588-120.470588h662.588236z m0 72.282353H180.705882a48.188235 48.188235 0 0 0-47.826823 42.164706L132.517647 120.470588v783.058824a48.188235 48.188235 0 0 0 42.164706 47.826823l6.023529 0.361412h662.588236a48.188235 48.188235 0 0 0 47.826823-42.164706l0.361412-6.023529V120.470588a48.188235 48.188235 0 0 0-42.164706-47.826823L843.294118 72.282353z" p-id="1481"></path><path d="M843.294118 0a120.470588 120.470588 0 0 1 120.470588 120.470588v240.941177H60.235294V120.470588a120.470588 120.470588 0 0 1 120.470588-120.470588h662.588236z m0 72.282353H180.705882a48.188235 48.188235 0 0 0-47.826823 42.164706L132.517647 120.470588v168.658824h758.964706V120.470588a48.188235 48.188235 0 0 0-42.164706-47.826823L843.294118 72.282353z" p-id="1482"></path><path d="M496.941176 195.764706m-75.294117 0a75.294118 75.294118 0 1 0 150.588235 0 75.294118 75.294118 0 1 0-150.588235 0Z" p-id="1483"></path><path d="M496.941176 496.941176m-75.294117 0a75.294118 75.294118 0 1 0 150.588235 0 75.294118 75.294118 0 1 0-150.588235 0Z" p-id="1484"></path><path d="M466.823529 240.941176h60.235295v240.941177h-60.235295z" p-id="1485"></path></svg>