<?xml version="1.0" encoding="UTF-8"?>
<svg width="16px" height="20px" viewBox="0 0 16 20" version="1.1" xmlns="http://www.w3.org/2000/svg" xmlns:xlink="http://www.w3.org/1999/xlink">
    <title>sk_touch_black</title>
    <defs>
        <polygon id="path-1" points="0 0 16 0 16 20 0 20"></polygon>
    </defs>
    <g id="页面-1" stroke="none" stroke-width="1" fill="none" fill-rule="evenodd">
        <g id="申请续读2" transform="translate(-34.000000, -530.000000)">
            <g id="历年真题-(80.12%)备份-9" transform="translate(0.000000, 199.000000)">
                <g id="编组-2" transform="translate(34.000000, 47.000000)">
                    <g id="sk_touch_black" transform="translate(0.000000, 284.000000)">
                        <mask id="mask-2" fill="white">
                            <use xlink:href="#path-1"></use>
                        </mask>
                        <g id="Clip-2"></g>
                        <path d="M3.65666159,6.8037769 L3.65666159,5.10752175 C3.50252021,4.74558004 3.41489669,4.34500087 3.41489669,3.9235988 C3.41489669,2.31539626 4.66093117,1.01192477 6.19824384,1.01192477 C7.73558152,1.01192477 8.98171603,2.31539626 8.98171603,3.9235988 C8.98171603,4.14289321 8.9570094,4.35645869 8.91244744,4.5621502 C9.26254141,4.5764594 9.57835119,4.7283933 9.80848797,4.97272227 C9.89758688,4.63879729 9.95032604,4.28839189 9.95032604,3.92430511 C9.95032604,1.75715427 8.27050011,0 6.19894403,0 C4.12728792,0 2.44753628,1.75715427 2.44753628,3.92430511 C2.44686183,5.0637832 2.91406224,6.08706116 3.65666159,6.8037769 M15.0265887,13.4355033 C15.0265887,16.5027997 15.012835,18.9894878 10.3098976,18.9894878 C8.3177628,18.9894878 7.12164172,18.5251582 6.21534843,17.5834191 L1.33083725,12.5074718 C0.898596217,12.0552801 1.00750045,11.4776278 1.36102035,11.1072105 C1.71444022,10.7374209 2.36391456,10.7245243 2.70580634,11.0792199 C2.70580634,11.0792199 3.56278639,11.9699742 4.30125962,12.7383025 C4.8596095,13.319434 5.35076635,13.8297257 5.35076635,13.8297257 L5.35076635,4.14514292 C5.35076635,3.64340528 5.74267155,3.23639089 6.22627637,3.23639089 C6.70990619,3.23639089 7.04006982,3.64340528 7.04006982,4.14514292 L7.04006982,10.3052673 L7.04974742,10.3052673 C7.04359577,10.3358215 7.04006982,10.3709798 7.04006982,10.4068444 C7.04006982,10.6851021 7.25800332,10.911538 7.52655041,10.911538 C7.79507249,10.911538 8.01290596,10.6858084 8.01290596,10.4063212 C8.01290596,10.372 8.00948004,10.3382805 8.00332839,10.3052673 L8.01290596,10.3052673 L8.01290596,7.78056957 C8.01290596,7.27893657 8.36229975,6.8718437 8.84592958,6.8718437 C8.84592958,6.8718437 9.70220944,6.85967957 9.70220944,7.78056957 L9.70220944,11.1129394 L9.71188703,11.1129394 C9.70573538,11.1434936 9.70220944,11.1785472 9.70220944,11.2145164 C9.70220944,11.4927741 9.92014294,11.71921 10.18869,11.71921 C10.4572121,11.71921 10.6750456,11.4934804 10.6750456,11.2138886 C10.6750456,11.1795674 10.6716197,11.1458479 10.665468,11.1129394 L10.6750456,11.1129394 L10.6750456,8.79027079 C10.6750456,8.28863779 11.0189879,7.88164956 11.5026177,7.88164956 C11.5026177,7.88164956 12.3767774,7.93896485 12.3767774,8.79027079 L12.3767774,11.71921 L12.38633,11.71921 C12.3801783,11.7497642 12.3767774,11.7848179 12.3767774,11.8207871 C12.3767774,12.0990186 12.5946109,12.3254807 12.8631329,12.3254807 C13.131655,12.3254807 13.3371852,12.0997511 13.3371852,11.8202639 C13.3371852,11.7858381 13.3337593,11.7521971 13.3282828,11.71921 L13.3371852,11.71921 L13.3371852,9.71974107 C13.3371852,9.21810807 13.6975319,8.81111985 14.1811618,8.81111985 C14.1811618,8.81111985 15.0285642,8.77525528 15.0285642,9.71974107 L15.0285642,13.4355033 L15.0265887,13.4355033 M14.2318504,7.67951574 L14.1833123,7.67951574 C13.8250162,7.67951574 13.5310873,7.78700479 13.2481863,7.97053926 C13.0001697,7.21447976 12.3699256,6.66981452 11.5580826,6.66981452 C11.1998865,6.66981452 10.8573195,6.77732973 10.5743185,6.96073341 C10.326402,6.2046739 9.69615781,5.66003482 8.8836397,5.66003482 C8.56715475,5.66003482 8.27255066,5.74311713 8.01220578,5.88861581 L8.01220578,3.94300909 C8.01220578,2.88305563 7.24570002,2.02458201 6.22560118,2.02458201 C5.20550235,2.02458201 4.37803023,2.88376193 4.37803023,3.94300909 L4.37803023,11.3916941 L3.25655418,10.2229175 C2.53516053,9.47326704 1.25826777,9.58004978 0.643727801,10.2229175 C0.0292128418,10.8656544 -0.373620294,12.1585051 0.505990827,13.0793951 L5.66587593,18.4412649 C5.77205444,18.5516053 5.88918588,18.644105 6.012569,18.7221647 C6.95314649,19.5248142 8.03136092,20 10.3105978,20 C15.5177455,20 16,17.0610417 16,13.4363142 L16,9.59864913 C15.9993248,8.5388003 15.2526244,7.67951574 14.2318504,7.67951574" id="Fill-1" fill="#333333" mask="url(#mask-2)"></path>
                    </g>
                </g>
            </g>
        </g>
    </g>
</svg>