<svg t="1669885864773" class="icon" viewBox="0 0 1066 1024" version="1.1" xmlns="http://www.w3.org/2000/svg" p-id="4326" width="200" height="200"><path d="M960 213.333333h-324.266667l98.133334-98.133333c17.066667-17.066667 17.066667-42.666667 0-59.733333l-4.266667-4.266667c-17.066667-12.8-42.666667-12.8-55.466667 4.266667l-140.8 140.8-140.8-140.8c-17.066667-17.066667-42.666667-17.066667-59.733333 0-17.066667 17.066667-17.066667 42.666667 0 59.733333L430.933333 213.333333H106.666667c-25.6 0-42.666667 17.066667-42.666667 42.666667v170.666667c0 25.6 17.066667 42.666667 42.666667 42.666666H128v469.333334c0 25.6 17.066667 42.666667 42.666667 42.666666h725.333333c25.6 0 42.666667-17.066667 42.666667-42.666666V469.333333h21.333333c25.6 0 42.666667-17.066667 42.666667-42.666666V256c0-25.6-17.066667-42.666667-42.666667-42.666667z m-810.666667 85.333334h768v85.333333h-768V298.666667zM213.333333 896V469.333333h277.333334v426.666667H213.333333z m362.666667 0V469.333333H853.333333v426.666667h-277.333333z" p-id="4327"></path></svg>