<svg t="1648452616416" class="icon" viewBox="0 0 1024 1024" version="1.1" xmlns="http://www.w3.org/2000/svg" p-id="1504" width="200" height="200"><path d="M755.2 128C832.981333 128 896 187.093333 896 260.010667v503.978666C896 836.906667 832.981333 896 755.2 896H268.8C191.018667 896 128 836.906667 128 763.989333V260.010667C128 187.093333 191.018667 128 268.8 128h486.4zM469.333333 378.410667a42.666667 42.666667 0 0 0-42.666666 42.666666v181.845334a42.666667 42.666667 0 0 0 66.346666 35.541333l136.405334-90.965333a42.666667 42.666667 0 0 0 0-70.997334l-136.405334-90.965333A42.666667 42.666667 0 0 0 469.333333 378.453333z" p-id="1505"></path></svg>