<svg t="1651998815840" class="icon" viewBox="0 0 1024 1024" version="1.1" xmlns="http://www.w3.org/2000/svg" p-id="1371" width="200" height="200"><path d="M339.738502 228.093998c10.833307 14.415975 10.833307 35.997288-3.66797 46.830595l-79.159912 82.742581a38.21513 38.21513 0 0 0-7.080035 43.333228 932.346811 932.346811 0 0 0 158.405126 212.401057c62.867301 62.696698 134.435368 116.010216 212.315756 158.490428 14.501277 6.994734 31.646905 4.009177 43.247926-7.165337l82.742581-82.827882a34.120652 34.120652 0 0 1 46.915896-3.66797l140.321181 115.242501s3.582668 0 3.582668 3.66797c13.989467 13.221753 14.501277 35.229573 1.194223 49.133739l-1.194223 1.194223-97.243858 97.243857c-46.745293 46.915896-269.894356-71.994575-482.295413-280.898266C145.42139 454.82573 30.093587 228.008697 76.924182 181.178102L177.665406 80.351576c14.501277-10.833307 39.665258-10.833307 50.498565 7.250639l111.574531 140.406482z m50.327962 97.243858a105.774021 105.774021 0 0 0 7.250638-144.074452L285.742571 40.856922C249.659981-5.973673 181.418678-13.309613 134.502782 22.772976c-3.582668 3.582668-7.080035 3.582668-7.080036 7.165337l-97.243857 97.243858C-63.396999 221.013963 69.844146 473.080278 310.991853 714.313287c241.147707 241.31831 489.46075 371.062089 583.036638 280.983568l97.243858-97.243858c43.247926-43.333228 43.247926-111.745135 0-151.325091l-7.165337-7.250638L843.70053 627.902736a105.603417 105.603417 0 0 0-143.989151 7.165337l-61.24657 61.24657c-64.829238-39.665258-122.407838-82.913184-172.821102-133.326447-50.327961-50.498565-93.575888-108.077165-133.155843-172.906403l57.5786-64.829239z m486.048685 126.075809c0 21.581312 14.330674 35.997288 35.997288 35.997287s35.997288-14.330674 35.997287-35.997287c0-198.070384-162.073096-360.228782-359.972876-360.228782-21.581312 0-35.997288 14.501277-35.997288 36.082589s14.415975 35.997288 35.997288 35.997288a288.831318 288.831318 0 0 1 287.978301 288.148905z m-144.159754 0c0 21.581312 14.415975 35.997288 36.082589 35.997287 21.581312 0 35.997288-14.330674 35.997288-35.997287a216.666139 216.666139 0 0 0-215.983726-216.15433c-21.581312 0-36.082589 14.330674-36.082589 36.08259 0 21.666614 14.501277 35.997288 36.082589 35.997287A144.245056 144.245056 0 0 1 731.955395 451.413665z" p-id="1372"></path></svg>