<svg t="1649298113548" class="icon" viewBox="0 0 1024 1024" version="1.1" xmlns="http://www.w3.org/2000/svg" p-id="6432" width="200" height="200"><path d="M2.604032 528.50970397l0-31.86908388c0.29107427-2.23195363 0.59379029-4.46507122 0.86507179-6.69702486 3.24488989-26.87542272 4.74217358-54.10129806 10.04903082-80.56805376 16.02419257-79.97193443 50.05886578-151.89160391 101.21333305-215.51101382 55.18059975-68.63402894 123.54101931-119.81644003 205.02886628-153.2584869 48.72341959-19.99327459 99.40052537-32.06468608 151.98591203-35.89288733 8.67516189-0.63104797 17.34217501-1.39016875 26.015009-2.09107399l28.45420658 0c2.6173349 0.30155207 5.22768498 0.77425664 7.85433486 0.87554958 46.49030201 1.85355719 91.87685149 9.95122973 136.0408906 24.49211051 93.89224619 30.90854115 172.57763385 84.47892025 235.27608661 160.78216078 66.58137657 81.02562133 104.56999595 174.08423139 113.96702094 278.69730703 4.37076309 48.68732587 1.7033637 96.9834496-7.81125518 144.87788998-11.13764637 56.05382144-31.22872206 108.74748701-60.34541227 157.9331311-48.28447971 81.56119723-114.06482205 145.24813653-197.40506226 190.23998976-85.63506517 46.23299243-177.37569394 65.81294194-274.57570247 59.7958656-48.95278535-3.03065998-96.66676053-12.40207133-142.40259982-29.92471154-141.11023218-54.07684835-240.83559538-151.06844786-298.23883491-290.98178332-19.10957511-46.57762304-30.01785458-95.27542898-33.82044218-145.51941689C4.11179463 545.42225408 3.32356608 536.96830691 2.604032 528.50970397L2.604032 528.50970397zM512.19851264 958.45941703c247.75150819-0.82781411 446.32319431-200.26457088 446.01116331-446.43030926-0.31203101-247.16121088-199.42162091-445.60598813-445.81090418-445.88425444-246.3438757-0.27593842-446.10197845 199.33546269-446.30223644 445.96808363C65.90209707 758.31709696 265.88840163 958.41866638 512.19851264 958.45941703L512.19851264 958.45941703zM512.19851264 958.45941703" p-id="6433"></path></svg>