<svg t="1672975157978" class="icon" viewBox="0 0 1024 1024" version="1.1" xmlns="http://www.w3.org/2000/svg" p-id="1466" width="200" height="200"><path d="M493.037037 113.777778a260.740741 260.740741 0 0 1 260.740741 260.740741 257.21363 257.21363 0 0 1-52.224 156.406518l-1.858371 2.351407-2.010074 2.199704a32.085333 32.085333 0 0 0 1.289482 45.359408l1.289481 1.175703 1.365334 1.099852 166.494814 124.890074a83.437037 83.437037 0 0 1 31.781926 83.13363l-23.021037 115.105185A52.148148 52.148148 0 0 1 825.761185 948.148148H160.312889c-24.841481 0-46.26963-17.559704-51.124148-41.908148l-23.021037-115.067259a83.437037 83.437037 0 0 1 31.857777-83.171556l166.836149-124.890074a34.133333 34.133333 0 0 0 3.147851-47.331555A46.876444 46.876444 0 0 1 284.444444 530.962963l0.37926 0.568889A260.740741 260.740741 0 0 1 493.037037 113.777778z m5.195852 521.481481a31.288889 31.288889 0 0 0-31.288889 31.288889v104.296296a31.288889 31.288889 0 0 0 62.577778 0v-104.296296a31.288889 31.288889 0 0 0-31.288889-31.288889z" p-id="1467"></path></svg>