<?xml version="1.0" encoding="UTF-8"?>
<svg width="24px" height="24px" viewBox="0 0 24 24" version="1.1" xmlns="http://www.w3.org/2000/svg" xmlns:xlink="http://www.w3.org/1999/xlink">
    <title>xtjy_home_mine_default备份 48</title>
    <g id="客户端" stroke="none" stroke-width="1" fill="none" fill-rule="evenodd">
        <g id="iOS-首页" transform="translate(-326.000000, -2792.000000)" stroke="#656D7F" stroke-width="2">
            <g id="Group-4备份" transform="translate(0.000000, 2786.000000)">
                <g id="编组-14" transform="translate(326.000000, 6.000000)">
                    <path d="M11.770603,2 C13.3929394,2 14.8616894,2.65758177 15.9248553,3.72074766 C16.9880212,4.78391355 17.645603,6.25266355 17.645603,7.875 C17.645603,9.18891519 17.2232032,10.3869756 16.4938071,11.3647584 C16.1301644,11.7784056 15.9717959,12.2273595 15.9505839,12.638051 C15.9217633,13.1960578 16.1382186,13.7124039 16.5622971,14.0868659 L21.0610685,17.4683224 C21.2460013,17.6069431 21.3829041,17.7925119 21.4622421,18.000083 C21.5415802,18.2076542 21.5633535,18.4372278 21.5180274,18.6638583 L20.9110904,21.6985436 L2.99783336,22 L2.02337977,18.6648644 C1.97802531,18.4380921 1.99985475,18.20838 2.07930807,18.0007151 C2.1587614,17.7930502 2.29583859,17.6074323 2.48097964,17.4688484 L6.91143842,14.1525094 C7.31702443,13.8054273 7.54019051,13.3261274 7.57297209,12.834142 C7.6040012,12.3684575 7.46445717,11.8914075 7.14762978,11.5041766 C6.33921819,10.4247764 5.89560299,9.20233691 5.89560299,7.875 C5.89560299,6.25266355 6.55318477,4.78391355 7.61635065,3.72074766 C8.67951654,2.65758177 10.1482665,2 11.770603,2 Z" id="形状结合"></path>
                    <rect id="矩形" x="12.083103" y="15.75" width="1" height="2.4" rx="0.5"></rect>
                </g>
            </g>
        </g>
    </g>
</svg>