<svg t="1655708306368" class="icon" viewBox="0 0 1024 1024" version="1.1" xmlns="http://www.w3.org/2000/svg" p-id="2579" width="200" height="200"><path d="M1.55151515 489.02981818v-30.62690909C4.10375757 430.32824243 9.20824243 404.80581818 16.8649697 379.28339394c20.41793939-66.35830303 53.59709091-122.50763636 99.53745455-171.00024242C180.20848485 139.37260606 256.77575757 95.98448485 340.99975757 67.90981818c48.49260606-15.31345455 96.98521212-22.97018182 145.47781818-25.52242424 40.83587879-2.55224243 79.11951515 0 119.95539395 7.65672727 33.17915152 5.10448485 63.80606061 12.76121212 96.98521212 25.52242424 79.11951515 28.07466666 148.03006061 71.46278788 206.73163636 132.71660607 7.65672727 7.65672727 12.76121212 15.31345455 20.41793939 22.97018182-2.55224243 0-2.55224243 2.55224243-5.10448484 2.55224241-20.41793939 10.2089697-40.83587879 20.41793939-61.25381818 28.07466668-142.92557575 66.35830303-285.85115152 132.71660606-428.77672728 196.52266666-28.07466666 12.76121212-56.14933334 10.2089697-81.67175757-5.10448484-20.41793939-12.76121212-38.28363636-25.52242425-58.70157576-38.28363637-12.76121212-10.2089697-25.52242425-17.86569697-40.83587879-28.07466667-12.76121212-7.65672727-20.41793939-2.55224243-20.4179394 12.76121213v2.55224241c2.55224243 12.76121212 5.10448485 25.52242425 10.2089697 38.28363637 25.52242425 61.25381818 51.04484848 119.95539394 76.56727273 181.20921213 7.65672727 17.86569697 20.41793939 25.52242425 35.73139394 22.97018181 10.2089697 0 20.41793939-2.55224243 28.07466667-7.65672727 30.62690909-15.31345455 58.70157575-33.17915152 86.77624242-51.04484849 155.68678788-91.88072727 308.82133334-183.76145455 464.50812122-275.64218182 10.2089697-7.65672727 22.97018182-12.76121212 33.17915151-20.41793939 0 2.55224243 2.55224243 2.55224243 2.55224242 5.10448485 5.10448485 10.2089697 10.2089697 17.86569697 12.76121212 28.07466667 28.07466666 61.25381818 40.83587879 125.05987879 35.73139395 191.41818182-2.55224243 28.07466666-7.65672727 56.14933334-15.31345455 84.224-17.86569697 61.25381818-48.49260606 114.85090909-91.88072727 163.34351514-51.04484848 56.14933334-114.85090909 99.53745455-183.76145455 127.61212122-40.83587879 15.31345455-81.67175757 28.07466666-122.50763636 35.73139394-28.07466666 5.10448485-56.14933334 7.65672727-81.67175758 7.65672727h-45.94036364c-20.41793939-2.55224243-40.83587879-2.55224243-58.70157575-5.10448485-30.62690909-5.10448485-61.25381818-12.76121212-89.32848485-22.97018181H323.13406061c-12.76121212 7.65672727-22.97018182 15.31345455-35.73139395 22.97018181-28.07466666 17.86569697-53.59709091 33.17915152-81.67175757 48.49260606-5.10448485 2.55224243-12.76121212 5.10448485-17.86569697 5.10448485s-10.2089697-2.55224243-10.20896969-10.2089697c0-5.10448485 0-12.76121212 2.55224242-17.86569697 5.10448485-38.28363636 12.76121212-74.0150303 20.4179394-112.29866666 0-5.10448485 0-7.65672727-5.10448486-10.2089697-15.31345455-12.76121212-30.62690909-22.97018182-45.94036364-38.28363637-51.04484848-45.94036364-91.88072727-102.08969697-117.4031515-165.89575757C21.96945455 598.77624243 14.31272727 568.14933334 9.20824243 537.52242425c-2.55224243-12.76121212-2.55224243-25.52242425-2.55224243-40.8358788-5.10448485 0-5.10448485-2.55224243-5.10448485-7.65672727z" p-id="2580"></path></svg>